<svg width="72" height="79" viewBox="0 0 72 79" xmlns="http://www.w3.org/2000/svg"><title>Solider</title><g fill="none" fill-rule="evenodd"><path d="M2.75 77h67c0-7-14.894-13-34.5-13s-32.5 5-32.5 13z" stroke="#383128" stroke-width="2" fill="#76D03B"/><path d="M35 70c6.627 0 12-3.806 12-8.5 0-3.494 1-9-4.5-8.135-.414-.127-3.573.094-4.01 0-1.104-.237-8.776-.365-9.99-.365-6.627 0-5.5 3.806-5.5 8.5S28.373 70 35 70z" stroke="#383128" stroke-width="2" fill="#76D03B"/><path d="M35 62c6.627 0 12-3.806 12-8.5 0-3.494 1-9-4.5-8.135-.414-.127-3.573.094-4.01 0-1.104-.237-8.776-.365-9.99-.365-6.627 0-5.5 3.806-5.5 8.5S28.373 62 35 62z" stroke="#383128" stroke-width="3" fill="#76D03B"/><path fill="#393229" d="M33 63h4v7h-4z"/><ellipse stroke="#383128" stroke-width="2" fill="#EFDCD2" cx="35" cy="33.5" rx="19" ry="27.5"/><path d="M16 29c5.5 2.5 32 3 38 0l1 4.5h6S59 1 36 1 9.5 22.5 9.5 33h5s.5-1 1.5-4z" stroke="#383128" stroke-width="2" fill="#76D03B"/><path d="M44 38c0 1.105-.895 2-2 2s-2-.895-2-2h-2v-2h8v2h-2zM30 38c0 1.105-.895 2-2 2s-2-.895-2-2h-2v-2h8v2h-2zM31 51h8v2h-8z" fill="#383128"/></g></svg>